<?xml version="1.0" encoding="UTF-8"?>
<svg id="Layer_2" data-name="Layer 2" xmlns="http://www.w3.org/2000/svg" viewBox="0 0 224.02 160.91">
  <g id="Layer_1-2" data-name="Layer 1">
    <g>
      <path d="M224.02,153.62c-2.89,5.59-7.42,7.31-13.71,7.29-65.69-.19-131.39-.11-197.08-.12-10.06,0-13.23-3.24-13.23-13.49C0,110.97,0,74.64,0,38.31c0-9.66,2.1-12.24,11.7-13.58,2.15-.3,2.58-1.24,2.23-2.85-2.1-9.51,3.79-12.29,11.35-14.93,27.92-9.77,55.48-9.19,82.85,1.75,2.61,1.04,4.72,1.34,7.41.24,29.08-11.9,58.2-11.82,87.46-.35,5.2,2.04,8.1,4.55,7.12,10.4-.61,3.62-.13,6.31,4.82,5.94,4.38-.33,6.49,3.5,9.09,6.23v122.46ZM115.35,134.96c28.74-11.09,56.87-11.57,85-.98,3.5,1.32,3.07-.5,3.07-2.61,0-37.33-.06-74.66.08-111.99.01-3.23-1.5-4.2-3.99-5.16-26.63-10.28-53.23-10.45-79.92-.19-3.25,1.25-4.35,2.86-4.34,6.42.16,35.51.09,71.01.09,106.52,0,2.48,0,4.95,0,8ZM20.62,135.08c14.5-5.83,28.97-8.71,44.01-8.74,15.06-.03,29.51,2.96,44.05,8.67v-5.32c0-16.59-.26-33.19.17-49.76.12-4.69-2.45-6.26-5.42-8.35-3.06-2.16-4.43.91-6.46,1.85-1.48.69-2.76,1.8-4.17,2.66-1.95,1.19-4.09.63-4.53-1.24-.77-3.29-3.19-3.33-5.47-3.68-16.25-2.45-32.35-1.9-48.19,2.8-2.38.71-5.17,1.93-6.2-1.54-1.02-3.44,1.91-3.87,4.32-4.59,17.96-5.33,36.13-5.95,54.47-2.39.93-7.51.93-7.55-6.07-8.39-4.11-.5-8.23-.91-12.35-1.27-2.48-.22-5.56.08-5.33-3.53.25-3.89,3.53-3.29,6.11-3.04,5.9.57,11.79,1.31,18.06,2.03,0-6.28-.14-12.4.07-18.51.09-2.6-1.36-3.09-3.23-3.36-9.03-1.27-18.05-2.39-27.22-1.53-2.79.26-7.23,2.28-7.74-2.44-.53-4.85,4.32-3.65,7.03-3.91,10.29-1,20.52,0,31.1,1.95,0-3.9-.15-7.53.05-11.14.14-2.66-.71-3.6-3.47-4.11-20.25-3.7-39.82-1.5-59.03,5.68-3.55,1.33-4.65,3.01-4.64,6.74.15,36.5.09,72.99.09,109.49,0,1.45,0,2.9,0,4.96ZM217.52,93.41c0-18.89,0-37.79,0-56.68,0-3.45-.95-5.77-5.09-5.59-4.39.19-2.26,3.42-2.26,5.1-.14,34.47-.1,68.95-.1,103.42,0,6.92-.16,7.09-6.89,7.09-24.36,0-48.73.02-73.09-.02-2.64,0-4.65-.25-4.6,3.7.05,3.76,1.45,4.19,4.65,4.18,26.85-.11,53.7-.06,80.55-.07,6.04,0,6.81-.77,6.82-6.92.02-18.07,0-36.13,0-54.2ZM6.52,92.79c0,18.4.07,36.8-.05,55.2-.03,4.5,1.33,6.63,6.26,6.61,27.18-.15,54.37-.12,81.55,0,3.18.01,4.16-.73,4.25-4.07.1-3.75-1.66-3.83-4.47-3.83-24.37.07-48.73.04-73.1.04-6.85,0-6.99-.14-6.99-6.97,0-34.98.01-69.95-.06-104.93,0-1.28,1.27-3.58-1.71-3.67-2.4-.07-4.84-.11-5.42,2.97-.27,1.45-.25,2.96-.25,4.45-.02,18.07,0,36.14,0,54.2ZM108.68,67.91V25.98c0-10.67-.04-10.55-10.23-14.04-3.18-1.09-4.44-1.04-4.26,2.84.27,6.11.07,12.23.07,18.35,0,11.16,0,22.33,0,34.76,4.94-5.44,9.34-5.59,14.42.02ZM102.1,140.44c-24.97-9.96-49.98-10.07-74.95,0h74.95ZM121.78,140.35h75.1c-25.03-9.77-50.06-10.04-75.1,0ZM112.41,146.74c-1.32,0-2.66.15-3.96-.03-3.02-.42-3.92.67-3.94,3.78-.01,3.24.87,4.44,4.14,4.09,2.45-.26,4.97-.26,7.42,0,3.15.33,3.38-1.29,3.38-3.8,0-2.65-.11-4.64-3.59-4.07-1.13.18-2.31.03-3.46.03Z" fill="#f2f2f2" stroke-width="0"/>
      <path d="M159.67,63.04c10.82.51,21.62,1.72,32.13,4.9,2.33.7,4.8,1.41,3.84,4.49-.93,3-3.31,2.38-5.73,1.68-20.5-5.93-41.03-5.88-61.52.08-2.33.68-4.39,1.06-5.24-1.68-.95-3.07,1.31-3.87,3.7-4.58,10.68-3.22,21.63-4.46,32.82-4.89Z" fill="#f2f2f2" stroke-width="0"/>
      <path d="M161.78,91.31c8.34.11,19.14,1.54,29.71,4.56,2.23.64,5.02,1.35,4.25,4.37-.81,3.19-3.28,2.7-6.01,1.91-20.4-5.91-40.84-5.88-61.22.1-2.34.69-4.33,1.13-5.3-1.57-1.16-3.21,1.41-4.06,3.62-4.7,10.55-3.03,21.33-4.63,34.96-4.67Z" fill="#f2f2f2" stroke-width="0"/>
      <path d="M162.84,41.8c-11.14-.27-22.12.8-32.84,3.97-.79.23-1.61.37-2.4.63-1.98.66-3.64.43-4.43-1.74-.9-2.46.5-3.82,2.62-4.43,14.93-4.28,30.07-6.31,45.6-4.29,2.23.29,3.48,1.44,3.31,3.49-.18,2.13-1.75,2.97-3.92,2.79-2.64-.22-5.29-.28-7.94-.42Z" fill="#f2f2f2" stroke-width="0"/>
      <path d="M157.69,21.08c12.82.19,23.73,1.64,34.4,4.91,2.31.71,4.22,1.64,3.56,4.28-.71,2.85-3.13,2.51-5.28,1.88-13.64-3.94-27.49-5.6-41.66-3.98-2.33.27-4.51,0-4.66-2.98-.13-2.63,1.75-3.23,3.94-3.38,3.79-.26,7.58-.58,9.69-.74Z" fill="#f2f2f2" stroke-width="0"/>
      <path d="M161.47,105.66c9.99-.14,19.76,1.36,29.33,4.16,2.41.7,5.91.98,4.77,4.77-1,3.32-3.72,2.17-6.22,1.46-11.87-3.34-23.97-4.79-36.31-4.13-2.45.13-5.55.68-5.57-2.98-.02-3.55,3.1-3.21,5.55-3.26,2.81-.06,5.63-.01,8.44-.01Z" fill="#f2f2f2" stroke-width="0"/>
      <path d="M154.7,77.45c3.14,0,6.28-.04,9.41.02,2.08.04,3.64.98,3.56,3.24-.09,2.47-1.76,3.31-4.07,3.22-12.32-.52-24.39.9-36.15,4.72-2.1.68-3.64-.04-4.33-2.07-.85-2.51.8-3.71,2.85-4.3,7.78-2.22,15.65-4.06,23.78-4.45,1.65-.08,3.3-.25,4.95-.37Z" fill="#f2f2f2" stroke-width="0"/>
      <path d="M163.06,49.14c10.24.77,19.53,1.97,28.58,4.75,2.36.73,4.81,1.39,4.05,4.39-.76,3.02-3.19,2.59-5.62,1.85-8.72-2.65-17.66-4.05-26.77-4.36-2.53-.09-5.46-.08-5.13-3.69.32-3.52,3.28-2.99,4.89-2.95Z" fill="#f2f2f2" stroke-width="0"/>
      <path d="M145.99,50c2.28-.2,4.1.58,4.28,2.99.16,2.15-1.36,3.02-3.46,3.32-6.51.94-12.98,2.12-19.27,4.12-2.04.65-3.58.32-4.38-1.78-.81-2.13.2-3.63,2.14-4.23,6.76-2.08,13.66-3.55,20.69-4.41Z" fill="#f2f2f2" stroke-width="0"/>
      <path d="M179.78,78.93c4.47,1.17,8.96,2.28,13.4,3.54,1.94.55,3.24,1.86,2.47,4.05-.7,1.98-2.19,2.73-4.35,2.16-4.3-1.14-8.64-2.15-12.95-3.25-1.98-.51-3.41-1.74-2.82-3.87.52-1.91,2.03-2.99,4.25-2.62Z" fill="#f2f2f2" stroke-width="0"/>
      <path d="M126.6,116.82c-1.73.23-2.9-.52-3.46-2.13-.67-1.9.1-3.36,1.9-3.92,3.61-1.12,7.27-2.1,10.96-2.93,1.55-.35,3.02.29,3.46,2.04.45,1.78.08,3.42-1.89,4-3.63,1.07-7.31,1.97-10.97,2.94Z" fill="#f2f2f2" stroke-width="0"/>
      <path d="M192.35,46.72c-2.76-.7-5.06-1.1-7.22-1.88-1.78-.64-3.3-1.92-2.47-4.13.71-1.88,2.06-2.84,4.3-2.06,2.17.76,4.51,1.07,6.66,1.87,1.64.61,2.73,1.93,2.09,3.9-.61,1.87-2.03,2.46-3.36,2.29Z" fill="#f2f2f2" stroke-width="0"/>
      <path d="M126.96,32.55c-2.13.06-3.37-.47-3.91-2.18-.53-1.72.17-3.13,1.61-3.69,2.59-1.01,5.3-1.78,8.02-2.36,1.66-.35,2.81.87,3.42,2.31.71,1.66-.15,3.07-1.59,3.63-2.59,1-5.33,1.64-7.55,2.3Z" fill="#f2f2f2" stroke-width="0"/>
      <path d="M101.15,99.86c-.77,2.92-2.49,3.37-5.54,2.44-10.67-3.28-21.62-4.65-32.83-4.49-9.87.14-19.45,1.74-28.85,4.47-2.65.77-4.77.88-5.62-1.94-.85-2.81,1.57-3.72,3.64-4.31,21.7-6.15,43.43-6.34,65.15-.11,1.93.55,3.87,1.21,4.04,3.94Z" fill="#f2f2f2" stroke-width="0"/>
      <path d="M65.04,41.65c-10.66.19-20.63,1.38-30.37,4.32-2.24.68-5.2,2.04-6.26-1.48-1.03-3.41,1.83-3.96,4.29-4.65,14.15-3.98,28.48-5.81,43.17-3.97,2.43.3,4.39.85,4.08,3.72-.29,2.65-2.39,2.74-4.51,2.61-3.64-.22-7.28-.39-10.39-.55Z" fill="#f2f2f2" stroke-width="0"/>
      <path d="M66.9,105.66c10.17-.24,20.05,1.66,29.81,4.27,2.34.63,5.32,1.28,4.11,4.79-1.06,3.08-3.5,2.11-5.82,1.45-12.01-3.43-24.26-4.9-36.76-4.26-2.25.12-5.11.76-5.41-2.6-.32-3.63,2.58-3.62,5.13-3.65,2.98-.03,5.96,0,8.94,0Z" fill="#f2f2f2" stroke-width="0"/>
      <path d="M61.94,83.92c-9.84-.09-19.38,1.72-28.74,4.59-2.35.72-4,.25-4.82-1.97-.93-2.53.87-3.64,2.88-4.26,11.95-3.68,24.21-5.15,36.69-4.99.82.01,1.64.21,2.46.34,1.76.28,2.57,1.41,2.57,3.11,0,2-1.19,3.08-3.09,3.16-2.65.11-5.3.03-7.95.03Z" fill="#f2f2f2" stroke-width="0"/>
      <path d="M52.19,49.88c1.21-.2,3.1.65,3.4,2.92.32,2.44-1.63,3.23-3.8,3.55-6.34.94-12.64,2.14-18.76,4.06-2.36.74-3.96.13-4.72-2.08-.77-2.22.82-3.54,2.58-4.05,6.62-1.93,13.35-3.47,21.3-4.4Z" fill="#f2f2f2" stroke-width="0"/>
      <path d="M101.14,85.92c-.51,2.13-1.81,3.41-4.24,2.84-4.33-1.02-8.64-2.13-12.95-3.23-2.14-.55-3.82-1.76-3.08-4.17.58-1.89,2.23-2.8,4.36-2.28,4.17,1.02,8.36,1.96,12.5,3.06,1.81.48,3.41,1.38,3.41,3.78Z" fill="#f2f2f2" stroke-width="0"/>
      <path d="M40.54,107.82c2.4-.11,3.94.34,4.33,2.37.35,1.85-.28,3.25-2.27,3.79-3.35.91-6.68,1.88-10.03,2.74-2.1.54-3.69-.3-4.28-2.34-.56-1.91.54-3.18,2.34-3.73,3.47-1.05,6.97-2,9.92-2.84Z" fill="#f2f2f2" stroke-width="0"/>
      <path d="M32.15,32.57c-2.26-.01-3.46-.74-3.91-2.39-.48-1.75.51-3.04,1.91-3.58,2.44-.95,5-1.6,7.56-2.22,1.97-.47,3.19.76,3.74,2.43.53,1.61-.25,2.99-1.81,3.53-2.63.91-5.35,1.6-7.47,2.22Z" fill="#f2f2f2" stroke-width="0"/>
    </g>
  </g>
</svg>