<?xml version="1.0" encoding="UTF-8"?>
<svg id="Layer_2" data-name="Layer 2" xmlns="http://www.w3.org/2000/svg" viewBox="0 0 29.9 64.28">
  <g id="Layer_1-2" data-name="Layer 1">
    <path d="M19.81,13.26c.08-1.48,1.11-2.24,2.64-2.27,1.56-.04,3.13-.01,4.69-.01.84,0,1.68,0,2.51,0V.09c-4.31,0-8.58-.23-12.8.07-3.68.26-6.63,2.19-8.56,5.46-1.46,2.46-1.99,5.16-2.01,7.97-.02,2.34,0,4.68,0,7.17H0v11.41h6.28v32.1h13.42v-32.17h9.02c.39-3.8.77-7.48,1.17-11.34h-10.12c0-2.62-.1-5.07.04-7.51Z" fill="#fff" stroke-width="0"/>
  </g>
</svg>