<?xml version="1.0" encoding="UTF-8"?>
<svg id="Layer_2" data-name="Layer 2" xmlns="http://www.w3.org/2000/svg" viewBox="0 0 54.7 74.02">
  <g id="Layer_1-2" data-name="Layer 1">
    <path d="M33.37,0H4.05C1.82,0,0,1.82,0,4.05v65.92c0,2.23,1.82,4.05,4.05,4.05h46.6c2.23,0,4.05-1.82,4.05-4.05V19.98c0-1.08-.42-2.1-1.19-2.86L36.18,1.14c-.76-.74-1.76-1.14-2.82-1.14ZM49.64,68.96H5.06V5.06h24.22v13.58c0,3,2.44,5.44,5.43,5.44h14.93v44.88ZM34.71,19.01c-.21,0-.37-.17-.37-.38V7.98l11.8,11.03h-11.43ZM12.44,33c-1.73,0-3.15,1.41-3.15,3.15s1.41,3.15,3.15,3.15,3.15-1.41,3.15-3.15-1.41-3.15-3.15-3.15ZM18.18,33.62h26.82v5.06h-26.82v-5.06h0ZM12.44,43.12c-1.73,0-3.15,1.41-3.15,3.15s1.41,3.15,3.15,3.15,3.15-1.41,3.15-3.15-1.41-3.15-3.15-3.15ZM18.18,43.74h26.82v5.06h-26.82v-5.06h0ZM12.44,53.25c-1.73,0-3.15,1.41-3.15,3.15s1.41,3.15,3.15,3.15,3.15-1.41,3.15-3.15-1.41-3.15-3.15-3.15ZM18.18,53.86h26.82v5.06h-26.82v-5.06h0Z" fill="#fff" stroke-width="0"/>
  </g>
</svg>