<?xml version="1.0" encoding="UTF-8"?>
<svg id="Layer_2" data-name="Layer 2" xmlns="http://www.w3.org/2000/svg" xmlns:xlink="http://www.w3.org/1999/xlink" viewBox="0 0 2217.75 617.08">
  <defs>
    <clipPath id="clippath">
      <path d="M942.74,541.48l-88.11-101.49h82.67L555.33,0s85.79,153.42,119.71,214.55c10.12,18.23,18.95,34.49,26.47,49.06l-90.62-104.39s78.03,140.73,117.48,207.26c-8.89,15.54-31.88,23.04-70.43,29.2-.24.04-.49.08-.73.12l-236.66-258.94s114.57,197.34,163.26,273.04c-64.64,13.4-138.09,30.09-138.09,30.09h157.96c27.45,41.9,40.65,67.12,40.5,83.36-63.3,8.27-115.57,15.8-115.57,15.8l108.24.61c-17.75,15.71-67.4,17.39-145.56,34.76C386.35,597.84,0,611.84,0,611.84l858.22,3.89-68.64-75.1,153.17.86ZM766.27,439.99c7.05,25.67,1.31,43.86-16.83,56.71l-51.83-56.71h68.66Z" fill="none" stroke-width="0"/>
    </clipPath>
    <filter id="drop-shadow-1" filterUnits="userSpaceOnUse">
      <feOffset dx="3.11" dy="8.55"/>
      <feGaussianBlur result="blur" stdDeviation="33.43"/>
      <feFlood flood-color="#4a4a4a" flood-opacity=".75"/>
      <feComposite in2="blur" operator="in"/>
      <feComposite in="SourceGraphic"/>
    </filter>
    <filter id="drop-shadow-2" filterUnits="userSpaceOnUse">
      <feOffset dx="3.11" dy="8.55"/>
      <feGaussianBlur result="blur-2" stdDeviation="33.43"/>
      <feFlood flood-color="#4a4a4a" flood-opacity=".75"/>
      <feComposite in2="blur-2" operator="in"/>
      <feComposite in="SourceGraphic"/>
    </filter>
    <filter id="drop-shadow-3" filterUnits="userSpaceOnUse">
      <feOffset dx="3.11" dy="8.55"/>
      <feGaussianBlur result="blur-3" stdDeviation="33.43"/>
      <feFlood flood-color="#4a4a4a" flood-opacity=".75"/>
      <feComposite in2="blur-3" operator="in"/>
      <feComposite in="SourceGraphic"/>
    </filter>
  </defs>
  <g id="Layer_1-2" data-name="Layer 1">
    <g>
      <g clip-path="url(#clippath)">
        <g>
          <path d="M555.33,0l381.97,439.99h-491.58s153.92-34.98,212.22-44.31c97.5-15.6,95.62-39.65,17.1-181.13C641.12,153.42,555.33,0,555.33,0Z" fill="#f26428" filter="url(#drop-shadow-1)" stroke-width="0"/>
          <path d="M610.9,159.22l331.85,382.26-414.13-2.33s68.61-9.88,143.81-19.43c97.95-12.44,122.82-45.86,68.74-132.13-31.43-50.13-130.26-228.37-130.26-228.37Z" fill="#f26428" filter="url(#drop-shadow-2)" stroke-width="0"/>
          <path d="M420.56,136.86l437.66,478.86L0,611.84s386.35-13.99,491.3-37.31c155.57-34.57,198.23-7,101.06-151.59-41.99-62.48-171.8-286.07-171.8-286.07Z" fill="#f26428" filter="url(#drop-shadow-3)" stroke-width="0"/>
        </g>
      </g>
      <g>
        <g>
          <path d="M1036.32,485.6v-203.81h126.3v39.44h-81.91v49.75h76.83v36.42h-76.83v78.2h-44.39Z" fill="#f2f2f3" stroke-width="0"/>
          <path d="M1175.49,485.6v-213.3h43.02v213.3h-43.02Z" fill="#f2f2f3" stroke-width="0"/>
          <path d="M1306.27,489.31c-10.08,0-19.45-1.88-28.11-5.63-8.66-3.76-16.2-9.14-22.61-16.15-6.41-7.01-11.48-15.87-15.19-26.59-3.71-10.72-5.57-22.68-5.57-35.87s1.83-25.13,5.5-35.8c3.66-10.67,8.7-19.45,15.12-26.32,6.41-6.87,13.93-12.16,22.54-15.87,8.61-3.71,17.96-5.57,28.04-5.57,11.54,0,22.01,2.7,31.4,8.11,9.39,5.41,16.1,12.83,20.13,22.26v-27.21h42.74v160.66h-42.74v-26.25c-3.85,9.16-10.51,16.49-20,21.99-9.48,5.5-19.91,8.25-31.27,8.25ZM1318.36,453.58c12,0,21.76-4.35,29.27-13.06,7.51-8.7,11.27-20.52,11.27-35.46s-3.76-26.57-11.27-35.18c-7.51-8.61-17.36-12.92-29.55-12.92s-21.88,4.28-29.34,12.85c-7.47,8.57-11.2,20.32-11.2,35.25s3.76,26.87,11.27,35.53c7.51,8.66,17.36,12.99,29.55,12.99Z" fill="#f2f2f3" stroke-width="0"/>
          <path d="M1499.86,543.05c-20.34,0-37.31-4.05-50.92-12.16-13.61-8.11-22.97-19.63-28.11-34.56l40.82-9.35c2.84,7.33,7.67,13.15,14.5,17.45,6.82,4.31,14.82,6.46,23.98,6.46,13.28,0,23.27-3.67,29.96-10.99,6.69-7.33,10.03-18.97,10.03-34.91v-15.12c-3.76,9.16-10.26,16.1-19.52,20.82-9.26,4.72-19.84,7.08-31.75,7.08-10.17,0-19.56-1.72-28.17-5.15-8.61-3.44-16.15-8.36-22.61-14.77-6.46-6.41-11.52-14.61-15.19-24.6-3.67-9.99-5.5-21.16-5.5-33.53s1.81-23.39,5.43-33.33c3.62-9.94,8.63-18.12,15.05-24.53s13.93-11.31,22.54-14.71c8.61-3.39,18-5.09,28.17-5.09,12,0,22.65,2.38,31.95,7.15,9.3,4.76,15.83,11.87,19.58,21.3v-25.84h42.74v132.49c0,29.87-6.8,51.65-20.41,65.35-13.61,13.7-34.47,20.55-62.6,20.55ZM1471.13,434.07c7.51,8.25,17.36,12.37,29.55,12.37s21.99-4.14,29.41-12.44c7.42-8.29,11.13-19.72,11.13-34.29s-3.73-25.61-11.2-33.95c-7.47-8.34-17.34-12.51-29.62-12.51s-21.76,4.17-29.27,12.51c-7.51,8.34-11.27,19.65-11.27,33.95s3.76,26.11,11.27,34.36Z" fill="#f2f2f3" stroke-width="0"/>
          <path d="M1670.91,488.35c-19.7,0-36.4-3.99-50.09-11.96-13.7-7.97-22.52-18.6-26.46-31.88l38.89-6.46c2.93,6.32,7.7,11.22,14.29,14.71,6.6,3.48,14.48,5.22,23.64,5.22s16.93-1.56,22.2-4.67c5.27-3.11,7.9-7.47,7.9-13.06,0-3.39-1.17-6.27-3.5-8.66-2.34-2.38-5.45-4.28-9.35-5.7-3.89-1.42-8.38-2.66-13.47-3.71-5.09-1.05-10.42-2.13-16.01-3.23-5.59-1.1-11.18-2.34-16.77-3.71-5.59-1.37-10.9-3.25-15.94-5.63-5.04-2.38-9.51-5.22-13.4-8.52-3.89-3.3-6.99-7.6-9.28-12.92-2.29-5.31-3.39-11.41-3.3-18.28.27-14.38,6.85-26,19.72-34.84,12.87-8.84,29.39-13.26,49.55-13.26,16.95,0,32.04,3.69,45.28,11.06,13.24,7.38,21.78,17.2,25.63,29.48l-38.21,6.73c-2.38-5.41-6.44-9.67-12.16-12.78-5.73-3.11-12.21-4.67-19.45-4.67-8.89,0-15.8,1.49-20.75,4.47-4.95,2.98-7.42,7.13-7.42,12.44,0,3.39,1.17,6.25,3.5,8.59,2.34,2.34,5.47,4.17,9.41,5.5,3.94,1.33,8.45,2.45,13.54,3.37,5.09.92,10.45,1.86,16.08,2.82,5.63.96,11.27,2.06,16.9,3.3,5.63,1.24,10.99,2.98,16.08,5.22,5.09,2.25,9.6,4.97,13.54,8.18,3.94,3.21,7.08,7.44,9.41,12.71,2.34,5.27,3.5,11.34,3.5,18.21,0,16.03-6.62,28.7-19.86,38-13.24,9.3-31.13,13.95-53.67,13.95Z" fill="#f2f2f3" stroke-width="0"/>
          <path d="M1755.93,485.6v-213.3h42.74v78.2c3.3-8.52,9.23-15.48,17.8-20.89,8.57-5.41,19.26-8.11,32.09-8.11,20.71,0,36.3,5.93,46.8,17.8,10.49,11.87,15.74,31.08,15.74,57.65v88.64h-42.88v-84.66c0-15.21-2.8-26.2-8.38-32.98-5.59-6.78-14.43-10.17-26.52-10.17s-20.55,3.73-26.18,11.2c-5.63,7.47-8.45,18.94-8.45,34.43v82.19h-42.74Z" fill="#f2f2f3" stroke-width="0"/>
          <path d="M1951.58,303.78c-7.15,0-13.01-1.95-17.59-5.84-4.58-3.89-6.87-9.18-6.87-15.87s2.27-12.07,6.8-15.87c4.54-3.8,10.42-5.7,17.66-5.7s12.78,1.9,17.45,5.7c4.67,3.8,7.01,9.09,7.01,15.87s-2.36,11.87-7.08,15.8c-4.72,3.94-10.51,5.91-17.39,5.91ZM1930.14,485.6v-160.93h42.47v160.93h-42.47Z" fill="#f2f2f3" stroke-width="0"/>
          <path d="M1995.09,537.69v-213.02h42.74v26.11c3.66-8.61,10.1-15.64,19.31-21.1,9.21-5.45,19.95-8.18,32.23-8.18,9.44,0,18.35,1.67,26.73,5.02,8.38,3.35,15.92,8.27,22.61,14.77,6.69,6.51,12,15.21,15.94,26.11,3.94,10.9,5.91,23.36,5.91,37.38,0,11.27-1.31,21.56-3.92,30.85-2.61,9.3-6.16,17.16-10.65,23.57-4.49,6.41-9.78,11.82-15.87,16.22-6.09,4.4-12.58,7.61-19.45,9.62-6.87,2.01-14.07,3.02-21.58,3.02-12.19,0-22.86-2.79-32.02-8.38-9.16-5.59-15.58-12.73-19.24-21.44v79.44h-42.74ZM2077,452.89c12.28,0,22.15-4.28,29.62-12.85,7.47-8.57,11.2-20.32,11.2-35.25s-3.71-26.73-11.13-35.39c-7.42-8.66-17.23-12.99-29.41-12.99s-22.04,4.33-29.55,12.99c-7.51,8.66-11.27,20.46-11.27,35.39s3.73,26.69,11.2,35.25c7.47,8.57,17.25,12.85,29.34,12.85Z" fill="#f2f2f3" stroke-width="0"/>
        </g>
        <g>
          <path d="M2181.07,252.15c16.35,0,29.64,13.3,29.64,29.64s-13.3,29.64-29.64,29.64-29.64-13.3-29.64-29.64,13.3-29.64,29.64-29.64M2181.07,245.11c-20.26,0-36.68,16.42-36.68,36.68s16.42,36.68,36.68,36.68,36.68-16.42,36.68-36.68-16.42-36.68-36.68-36.68h0Z" fill="#fff" stroke-width="0"/>
          <path d="M2188.85,287.89c-1.68,1.68-4.38,2.76-6.89,2.76-8.61,0-9.34-7.03-9.36-9.19-.02-2.72.93-5.25,2.61-6.94,1.64-1.66,3.92-2.5,6.75-2.5,2.56,0,4.9.9,6.57,2.54l1.66,1.62,7.71-7.45-1.74-1.71c-3.91-3.86-8.82-5.9-14.2-5.9-5.95,0-11.04,1.96-14.72,5.66-3.68,3.7-5.77,9.07-5.74,14.72.03,5.31,1.77,10.17,4.91,13.69,3.65,4.1,9.03,6.27,15.55,6.27,5.76,0,10.82-1.99,14.64-5.75l1.7-1.68-7.75-7.84-1.69,1.69Z" fill="#fff" stroke-width="0"/>
        </g>
        <g>
          <path d="M1981.02,537.42v-14.07h-406.65c-.63.69-1.26,1.38-1.92,2.04-4.65,4.68-9.99,8.68-15.95,12.04h424.52Z" fill="#fff" stroke-width="0"/>
          <rect x="2051.9" y="523.35" width="108.66" height="14.07" fill="#fff" stroke-width="0"/>
          <path d="M1441.73,535.94c-6.06-3.61-11.45-7.82-16.15-12.59h-389.26v14.07h408.02c-.88-.48-1.75-.97-2.61-1.48Z" fill="#fff" stroke-width="0"/>
        </g>
        <g>
          <path d="M1052.94,616.91c-5.68,0-10.43-1.26-14.26-3.78-3.83-2.52-6.28-6.08-7.35-10.69l10.62-1.41c.78,2.27,2.11,4,3.99,5.21,1.88,1.2,4.19,1.8,6.94,1.8s4.9-.53,6.44-1.6c1.55-1.06,2.31-2.55,2.29-4.45-.02-1.05-.36-1.98-1.01-2.77s-1.53-1.43-2.63-1.92-2.37-.94-3.8-1.34c-1.43-.4-2.93-.8-4.5-1.2-1.57-.4-3.13-.84-4.69-1.32-1.56-.48-3.05-1.11-4.47-1.89-1.42-.78-2.68-1.68-3.78-2.71-1.1-1.03-1.97-2.35-2.61-3.95-.64-1.6-.96-3.42-.96-5.46,0-4.44,1.72-8.04,5.15-10.79,3.44-2.75,7.89-4.12,13.37-4.12s10.16,1.17,13.71,3.52c3.55,2.35,5.81,5.77,6.77,10.26l-10.2,1.41c-1.63-4.12-4.94-6.18-9.93-6.18-2.47,0-4.43.51-5.86,1.53-1.43,1.02-2.15,2.41-2.15,4.17,0,1.15.33,2.14.98,2.97.65.84,1.53,1.51,2.65,2.01,1.11.5,2.39.95,3.83,1.34,1.44.39,2.96.77,4.55,1.13,1.59.37,3.18.77,4.76,1.22,1.58.45,3.09,1.04,4.54,1.77,1.44.73,2.72,1.6,3.83,2.59,1.11,1,1.99,2.3,2.65,3.9.65,1.6.98,3.44.98,5.5,0,4.6-1.8,8.3-5.41,11.08-3.61,2.78-8.41,4.17-14.41,4.17Z" fill="#f2f2f3" stroke-width="0"/>
          <path d="M1127.16,616.22v-41.02h-12.47v-9.93h35.91v9.93h-12.3v41.02h-11.13Z" fill="#f2f2f3" stroke-width="0"/>
          <path d="M1224.82,616.22l-3.23-8.86h-21.82l-3.26,8.86h-11.65l20.17-50.95h11.27l20.27,50.95h-11.75ZM1202.73,599.18h15.91l-7.97-21.78-7.94,21.78Z" fill="#f2f2f3" stroke-width="0"/>
          <path d="M1320.2,616.22h-12.58l-8.93-16.32c-.62.05-1.54.07-2.75.07h-5.36v16.25h-11.17v-50.95h16.46c8.11,0,13.98,1.38,17.63,4.14,3.64,2.76,5.46,7.08,5.46,12.97,0,7.54-3.33,12.69-10,15.46l11.24,18.38ZM1290.52,591.59h5.91c3.99,0,6.87-.64,8.66-1.91,1.79-1.27,2.68-3.45,2.68-6.54s-.89-5.28-2.68-6.56c-1.79-1.28-4.67-1.92-8.66-1.92h-5.91v16.94Z" fill="#f2f2f3" stroke-width="0"/>
          <path d="M1374.42,616.22v-41.02h-12.47v-9.93h35.91v9.93h-12.3v41.02h-11.13Z" fill="#f2f2f3" stroke-width="0"/>
          <path d="M1498.88,599.18v-8.73h22.37v8.73h-22.37Z" fill="#f2f2f3" stroke-width="0"/>
          <path d="M1646.05,616.91c-7.26,0-12.68-1.99-16.25-5.98s-5.36-10.1-5.36-18.35v-27.31h11.13v27.25c0,5.08.83,8.76,2.49,11.03,1.66,2.27,4.32,3.4,7.99,3.4s6.29-1.13,7.94-3.4c1.65-2.27,2.47-5.92,2.47-10.96v-27.31h11.2v27.38c0,8.18-1.8,14.26-5.39,18.26-3.6,4-9,6-16.22,6Z" fill="#f2f2f3" stroke-width="0"/>
          <path d="M1715.77,616.22v-50.95h14.71c5.96,0,10.73.65,14.31,1.96,3.58,1.31,6.2,3.32,7.83,6.05,1.64,2.73,2.46,6.35,2.46,10.86,0,6.67-1.87,11.44-5.62,14.33-3.75,2.89-9.98,4.33-18.71,4.33h-3.88v13.43h-11.1ZM1726.87,593h5.57c3.96,0,6.84-.7,8.64-2.11,1.8-1.41,2.7-3.73,2.7-6.96s-.9-5.51-2.7-6.91c-1.8-1.4-4.68-2.1-8.64-2.1h-5.57v18.07Z" fill="#f2f2f3" stroke-width="0"/>
          <path d="M1881.22,617.08c-2.54,0-4.97-.31-7.28-.93-2.31-.62-4.52-1.6-6.61-2.96-2.1-1.35-3.91-3.03-5.45-5.03-1.54-2-2.75-4.48-3.66-7.44-.91-2.95-1.36-6.23-1.36-9.83s.45-6.72,1.36-9.65c.9-2.93,2.12-5.41,3.66-7.42,1.53-2.02,3.34-3.72,5.43-5.12,2.08-1.4,4.29-2.42,6.63-3.07,2.34-.65,4.76-.98,7.28-.98,1.97,0,3.89.19,5.75.58,1.87.39,3.72,1.04,5.57,1.96,1.84.92,3.52,2.06,5.02,3.42,1.5,1.36,2.83,3.09,4,5.19,1.17,2.1,2.04,4.45,2.61,7.06l-10.93,1.92c-.85-3.28-2.35-5.75-4.5-7.42-2.15-1.67-4.68-2.51-7.59-2.51-3.85,0-6.95,1.44-9.29,4.31-2.35,2.88-3.52,6.79-3.52,11.73s1.17,8.85,3.5,11.7c2.34,2.85,5.44,4.28,9.31,4.28,2.96,0,5.51-.86,7.68-2.58,2.17-1.72,3.64-4.26,4.42-7.63l11,1.89c-.55,2.66-1.41,5.05-2.58,7.18s-2.5,3.89-4,5.27-3.18,2.54-5.03,3.47-3.72,1.59-5.6,1.99-3.81.6-5.81.6Z" fill="#f2f2f3" stroke-width="0"/>
          <path d="M1950.52,616.22v-50.95h11.1v41.02h18.86v9.93h-29.96Z" fill="#f2f2f3" stroke-width="0"/>
          <path d="M2044.53,616.91c-7.26,0-12.68-1.99-16.25-5.98s-5.36-10.1-5.36-18.35v-27.31h11.13v27.25c0,5.08.83,8.76,2.49,11.03,1.66,2.27,4.32,3.4,7.99,3.4s6.29-1.13,7.94-3.4c1.65-2.27,2.47-5.92,2.47-10.96v-27.31h11.2v27.38c0,8.18-1.8,14.26-5.39,18.26-3.6,4-9,6-16.22,6Z" fill="#f2f2f3" stroke-width="0"/>
          <path d="M2114.25,616.22v-50.95h17.28c3.37,0,6.33.22,8.88.67,2.55.45,4.64,1.06,6.27,1.84,1.63.78,2.94,1.75,3.95,2.92,1.01,1.17,1.71,2.4,2.11,3.69.4,1.29.6,2.75.6,4.38,0,3.23-.76,5.81-2.28,7.75-1.52,1.94-3.65,3.2-6.37,3.8,3.16.53,5.65,1.76,7.47,3.71,1.82,1.95,2.73,4.63,2.73,8.04,0,1.67-.21,3.18-.62,4.54s-1.15,2.64-2.2,3.87c-1.05,1.23-2.41,2.25-4.07,3.08-1.66.82-3.81,1.48-6.44,1.96-2.63.48-5.67.72-9.1.72h-18.21ZM2125.21,586.74h6.46c3.57,0,6.16-.52,7.75-1.56,1.59-1.04,2.39-2.69,2.39-4.93s-.75-3.66-2.23-4.54c-1.49-.87-4.17-1.31-8.04-1.31h-6.32v12.33ZM2125.21,607.15h7.32c3.89,0,6.68-.52,8.37-1.56s2.53-2.66,2.53-4.86c0-2.36-.79-4.04-2.37-5.03-1.58-1-4.4-1.49-8.45-1.49h-7.39v12.95Z" fill="#f2f2f3" stroke-width="0"/>
        </g>
      </g>
    </g>
  </g>
</svg>